<svg width="63" height="63" viewBox="0 0 63 63" fill="none" xmlns="http://www.w3.org/2000/svg">
<path d="M31.5 0C14.1047 0 0 14.1047 0 31.5C0 48.8953 14.1047 63 31.5 63C48.8953 63 63 48.8953 63 31.5C63 14.1047 48.8953 0 31.5 0ZM29.25 16.3125C29.25 16.0031 29.5031 15.75 29.8125 15.75H33.1875C33.4969 15.75 33.75 16.0031 33.75 16.3125V35.4375C33.75 35.7469 33.4969 36 33.1875 36H29.8125C29.5031 36 29.25 35.7469 29.25 35.4375V16.3125ZM31.5 47.25C30.6168 47.232 29.7759 46.8685 29.1577 46.2375C28.5395 45.6065 28.1932 44.7584 28.1932 43.875C28.1932 42.9916 28.5395 42.1435 29.1577 41.5125C29.7759 40.8815 30.6168 40.518 31.5 40.5C32.3832 40.518 33.2241 40.8815 33.8423 41.5125C34.4605 42.1435 34.8068 42.9916 34.8068 43.875C34.8068 44.7584 34.4605 45.6065 33.8423 46.2375C33.2241 46.8685 32.3832 47.232 31.5 47.25Z" fill="black"/>
</svg>
