<svg width="55" height="63" viewBox="0 0 55 63" fill="none" xmlns="http://www.w3.org/2000/svg">
<path d="M0 57.0938C0 60.3545 2.63951 63 5.89286 63H49.1071C52.3605 63 55 60.3545 55 57.0938V23.625H0V57.0938ZM7.85714 33.4688C7.85714 32.3859 8.74107 31.5 9.82143 31.5H21.6071C22.6875 31.5 23.5714 32.3859 23.5714 33.4688V45.2812C23.5714 46.3641 22.6875 47.25 21.6071 47.25H9.82143C8.74107 47.25 7.85714 46.3641 7.85714 45.2812V33.4688ZM49.1071 7.875H43.2143V1.96875C43.2143 0.885937 42.3304 0 41.25 0H37.3214C36.2411 0 35.3571 0.885937 35.3571 1.96875V7.875H19.6429V1.96875C19.6429 0.885937 18.7589 0 17.6786 0H13.75C12.6696 0 11.7857 0.885937 11.7857 1.96875V7.875H5.89286C2.63951 7.875 0 10.5205 0 13.7812V19.6875H55V13.7812C55 10.5205 52.3605 7.875 49.1071 7.875Z" fill="black"/>
</svg>
